# xmcd
#
# Track frame offsets:
#	150
#	17847
#	32655
#	47354
#	63781
#	79380
#	95356
#	113023
#	125860
#	142307
#	158643
#	173643
#	191791
#	204709
#	221445
#	237079
#	252142
#	268550
#	289130
#
# Disc length: 4025 seconds
#
# Revision: 1
# Processed by: cddbd v1.5.1PL2 Copyright (c) Steve Scherf et al.
# Submitted via: audiograbber 1.83.01
#
DISCID=100fb713
DTITLE=Various Artist - Hott Country 122
DYEAR=2006
DGENRE=Country
TTITLE0=Dixie Chicks - Not Ready To Make Nice
TTITLE1=Josh Gracin - Favorite State Of Mind
TTITLE2=Shedaisy - I'm Takin' The Wheel
TTITLE3=Ashley Monroe - Satisfied
TTITLE4=Lost Trailers - Call Me Crazy
TTITLE5=Jack Ingram - Wherever You Are
TTITLE6=Diamond rio - God Only Cries
TTITLE7=Sugarland - Down In Mississippi Up To No Good
TTITLE8=Ronnie Milsap - Local Girls
TTITLE9=Brad Paisley - The World (Radio Edit)
TTITLE10=Deric Ruttan - Invisible
TTITLE11=Charlie Major - You'd Better Go
TTITLE12=Jake Owens - Yee Haw
TTITLE13=Cross Canadian Raqweed - This Time Around
TTITLE14=Kenny Chesney - Summertime
TTITLE15=Shooter Jennings - Aviators
TTITLE16=Andy Griggs - I Never Had A Chance
TTITLE17=Sara Evans - You'll Always Be My Baby
TTITLE18=George Strait - Amarillo By Morning
EXTD=April 2006
EXTT0=
EXTT1=
EXTT2=
EXTT3=
EXTT4=
EXTT5=
EXTT6=
EXTT7=
EXTT8=
EXTT9=
EXTT10=
EXTT11=
EXTT12=
EXTT13=
EXTT14=
EXTT15=
EXTT16=
EXTT17=
EXTT18=
PLAYORDER=
